<?xml version="1.0" standalone="yes"?>
<svg xmlns="http://www.w3.org/2000/svg" width="250" height="250">
<path style="fill:#010101; stroke:none;" d="M0 0L0 41L32 41L32 0L0 0z"/>
<path style="fill:#363636; stroke:none;" d="M32 0L32 41L33 41C33 29.3043 36.5108 10.7499 32 0z"/>
<path style="fill:#fafafa; stroke:none;" d="M33 0L33 42L0 42L0 44L28 44L25 50L0 49L0 50L24 50L24 53L0 53L0 58L19 58C15.1327 64.8927 6.92715 63 0 63L0 64L16 64L16 65L0 66L0 76L10 76L10 78L0 78L0 79L8 79L8 80L0 80L0 88L5 88L5 90L0 90L0 91L4 91L4 92L0 92L0 158L5 158L5 159L0 159L0 161L6 161L6 162L0 163L0 167L8 167L8 168L0 169L0 170L9 170L9 172L0 172L0 177L12 177L12 178L0 178L0 184L15 184L15 186L0 186L0 192L19 192L19 193L0 193L0 197L23 197L23 198L0 198L0 200C6.53702 200 17.5674 197.831 23.5571 200.451C39.6445 207.488 34 236.331 34 250L40 250L40 217L41 217L41 250L43 250L43 220L45 220L45 250L60 250L60 233L61 233L61 250L67 250L67 236L68 236L68 250L70 250L69 238L71 250C76.3353 250 95.7729 252.727 97 247L98 247L98 250L104 248L120.285 249.884L165 250L165 235L167 235L167 250L171 250C171 244.291 169.031 234.001 172.894 229.318C177.891 223.259 200.534 227 208 227L208 250L221 250L221 217C221 213.538 219.865 207.423 222.603 204.742C227.354 200.092 243.678 203 250 203L250 199L227 199L227 198L250 198L250 192L231 191L231 190L250 190L250 186L235 186C238.974 181.942 244.655 183 250 183L250 179L238 179L238 177L250 177L250 173L241 173L241 171L250 171L250 162L245 162L245 160L250 160L250 159L246 159L247 153L250 154L247 151L247 150L250 150L248 141L250 138C245.489 136.342 243.982 133.006 247 129L246 122L248 122L249 132L250 132L250 100L248 100L250 94L246 94L246 92L250 92L250 82L242 82L242 80L250 80L250 77L240 77L240 76L250 76L250 73L239 73L239 72L250 72L250 66L234 65L234 64L250 64L250 63L233 63L233 61L250 61L250 60L232 61L250 59L250 57C245.59 57 232.055 59.2483 229.465 54.9676C227.112 51.0805 229.351 43.5719 228 39L250 38L250 0L208 0L208 31L207 31L207 0L205 0L205 29L204 29L204 0L203 0L203 27L202 27L202 0L198 0L198 23L196 23L196 0L190 0L190 18L188 18L188 0L187 0L187 16L185 16L185 0L158 0L147 2L146 2L130 0L86 0L86 7L85 7L84 0L77 0L77 10L76 10L76 0L73 0L73 12L72 12L72 0L67 0L67 15L65 15L65 0L59 0L59 19L58 19L58 0L50 0L50 26L48 26L48 0L47 0L47 28L46 28L46 0L41 0L41 33L40 33L40 0L33 0z"/>
<path style="fill:#a2a2a2; stroke:none;" d="M40 0L40 33L41 33L40 0M46 0L46 28L47 28L46 0M48 0L48 26L50 26L50 0L48 0M58 0L58 19L59 19L58 0M65 0L65 15L67 15L67 0L65 0M72 0L72 12L73 12L72 0M76 0L76 10L77 10L76 0M84 0L85 7L86 7L86 0L84 0M109 0L110 1L109 0M112.667 0.333328L113.333 0.666672L112.667 0.333328M146.333 0.666672L146.667 1.33333L146.333 0.666672M185 0L185 16L187 16L187 0L185 0M188 0L188 18L190 18L190 0L188 0M196 0L196 23L198 23L198 0L196 0M202 0L202 27L203 27L202 0M204 0L204 27L205 27L204 0M207 0L207 30L208 30L207 0M172 8L173 9L172 8M175 9L176 10L175 9z"/>
<path style="fill:#646464; stroke:none;" d="M204 27L205 28L204 27z"/>
<path style="fill:#a2a2a2; stroke:none;" d="M204 28L205 29L204 28z"/>
<path style="fill:#646464; stroke:none;" d="M207 30L208 31L207 30z"/>
<path style="fill:#a2a2a2; stroke:none;" d="M181 36L181 41L182 41L181 36M196 36L196 40L197 40L196 36M162 37L162 42L164 42L164 37L162 37M166 37L167 42L168 42L168 37L166 37M156 38L156 43L157 43L156 38M228 39L228 40L250 39C244.251 36.5876 233.918 37.2509 228 39z"/>
<path style="fill:#646464; stroke:none;" d="M229 39L230.028 54.3966L250 56L250 55L230 55L230 54L250 54L250 39L229 39z"/>
<path style="fill:#a2a2a2; stroke:none;" d="M145 40L146 45L147 45L147 40L145 40z"/>
<path style="fill:#646464; stroke:none;" d="M196 40L197 41L196 40M0 41L0 42L30 42L0 41z"/>
<path style="fill:#a2a2a2; stroke:none;" d="M30 41L30 42L33 42L30 41M186 41L186 46L187 46L186 41M194 41L194 47L196 47L196 41L194 41M198 42L199 43L198 42M28 43L29 44L28 43M210 43L210 50L213 50L212 43L210 43M218 43L219 44L218 43M0 44L0 47L28 47L28 44L0 44M124 45L123 51L124 51L124 45M198 46L199 47L198 46z"/>
<path style="fill:#646464; stroke:none;" d="M0 47L0 49L26 49L26 47L0 47z"/>
<path style="fill:#a2a2a2; stroke:none;" d="M120 47L120 50L121 50L120 47M24 49L25 50L24 49M128 49L129 50L128 49M0 50L0 51L24 51L0 50M218 50L219 51L218 50z"/>
<path style="fill:#010101; stroke:none;" d="M0 51L0 52L23 52L0 51z"/>
<path style="fill:#363636; stroke:none;" d="M23 51L24 52L23 51z"/>
<path style="fill:#a2a2a2; stroke:none;" d="M108 51L108 57L110 57L110 51L108 51M120 51L121 52L120 51z"/>
<path style="fill:#646464; stroke:none;" d="M0 52L0 53L23 53L0 52z"/>
<path style="fill:#a2a2a2; stroke:none;" d="M23 52L24 53L23 52z"/>
<path style="fill:#646464; stroke:none;" d="M103 54L104 55L103 54z"/>
<path style="fill:#a2a2a2; stroke:none;" d="M104 54L103 60L104 60L104 54M118 54L119 55L118 54M228 54L229 55L228 54M230 54L230 55L250 55L230 54M99 55L99 62C101.513 59.7942 100.897 57.5071 99 55M229.333 55.6667L229.667 56.3333L229.333 55.6667z"/>
<path style="fill:#646464; stroke:none;" d="M99 56L100 57L99 56z"/>
<path style="fill:#010101; stroke:none;" d="M230 56L230 57L250 57L230 56z"/>
<path style="fill:#a2a2a2; stroke:none;" d="M118 57L119 58L118 57M0 58L0 59L19 59L0 58z"/>
<path style="fill:#646464; stroke:none;" d="M103 58L104 59L103 58z"/>
<path style="fill:#010101; stroke:none;" d="M0 59L0 60L18 60L0 59z"/>
<path style="fill:#646464; stroke:none;" d="M18 59L19 60L18 59z"/>
<path style="fill:#a2a2a2; stroke:none;" d="M232 61L250 60C245.802 58.2386 235.154 57.3907 232 61M0 60L0 61L17 61L17 62L0 62L0 63C5.38301 63 14.7616 64.9952 18 60L0 60z"/>
<path style="fill:#646464; stroke:none;" d="M99 60L100 61L99 60z"/>
<path style="fill:#010101; stroke:none;" d="M0 61L0 62L17 62L0 61z"/>
<path style="fill:#a2a2a2; stroke:none;" d="M90 61L90 68L91 68L90 61M233 61L233 63L250 63L250 61L233 61z"/>
<path style="fill:#010101; stroke:none;" d="M0 64L0 65L15 65L0 64z"/>
<path style="fill:#646464; stroke:none;" d="M15 64L16 65L15 64z"/>
<path style="fill:#a2a2a2; stroke:none;" d="M234 64L235 65L234 64z"/>
<path style="fill:#363636; stroke:none;" d="M235 64L235 66L250 66L250 64L235 64z"/>
<path style="fill:#a2a2a2; stroke:none;" d="M0 65L0 66L15 66L0 65M85 71L85 78L87 78L87 71L85 71M10.3333 72.6667L10.6667 73.3333L10.3333 72.6667M239 72L239 73L250 73L239 72M80 74L80 82L82 82L80 74z"/>
<path style="fill:#646464; stroke:none;" d="M0 76L0 78L9 78L9 76L0 76z"/>
<path style="fill:#a2a2a2; stroke:none;" d="M9.33333 76.6667L9.66667 77.3333L9.33333 76.6667z"/>
<path style="fill:#646464; stroke:none;" d="M240 76L241 77L240 76z"/>
<path style="fill:#363636; stroke:none;" d="M241 76L241 77L250 77L241 76z"/>
<path style="fill:#a2a2a2; stroke:none;" d="M69 77L71 84L69 77M76 78L75 85L76 85L76 78M0 79L0 80L8 80L0 79z"/>
<path style="fill:#646464; stroke:none;" d="M76 79L75 86L76 79M242 80L242 81L250 81L242 80z"/>
<path style="fill:#a2a2a2; stroke:none;" d="M242 81L242 82L250 82L242 81M6 82L7 83L6 82M72 82L73 83L72 82z"/>
<path style="fill:#010101; stroke:none;" d="M63 83L63 88L57 90L57 91L71 91L71 84L63 83z"/>
<path style="fill:#fafafa; stroke:none;" d="M69 83L70 84L69 83z"/>
<path style="fill:#363636; stroke:none;" d="M71 83L71 91L72 91L71 83z"/>
<path style="fill:#a2a2a2; stroke:none;" d="M62 84L62 87L63 87L62 84z"/>
<path style="fill:#646464; stroke:none;" d="M69 84L70 85L69 84z"/>
<path style="fill:#a2a2a2; stroke:none;" d="M75.6667 86.3333L76.3333 86.6667L75.6667 86.3333z"/>
<path style="fill:#646464; stroke:none;" d="M59 87L60 88L59 87z"/>
<path style="fill:#363636; stroke:none;" d="M60 87L60 88L63 88L60 87z"/>
<path style="fill:#a2a2a2; stroke:none;" d="M0 88L0 90L5 90L5 88L0 88z"/>
<path style="fill:#363636; stroke:none;" d="M59.3333 88.6667L59.6667 89.3333L59.3333 88.6667z"/>
<path style="fill:#a2a2a2; stroke:none;" d="M57.6667 89.3333L58.3333 89.6667L57.6667 89.3333M246 89L247 90L246 89M0 91L0 92L4 92L0 91z"/>
<path style="fill:#363636; stroke:none;" d="M57 91L57 92L61 92L57 91z"/>
<path style="fill:#646464; stroke:none;" d="M63 91L64 92L63 91z"/>
<path style="fill:#a2a2a2; stroke:none;" d="M64 91L65 92L64 91z"/>
<path style="fill:#646464; stroke:none;" d="M65.6667 91.3333L66.3333 91.6667L65.6667 91.3333z"/>
<path style="fill:#a2a2a2; stroke:none;" d="M67 91L67 92L71 92L67 91M55.3333 92.6667L55.6667 93.3333L55.3333 92.6667z"/>
<path style="fill:#646464; stroke:none;" d="M56 94L62 93L56 94z"/>
<path style="fill:#a2a2a2; stroke:none;" d="M62 92L63 93L62 92z"/>
<path style="fill:#363636; stroke:none;" d="M246 92L246 93L250 93L246 92z"/>
<path style="fill:#a2a2a2; stroke:none;" d="M57 93L57 94L62 94L57 93M64 93C64 96.5498 56.0427 95 53 95L53 96L58 97L57 101L63 101L65 99L65 98L59 98L59 96L67 93L64 93M246 93L246 94L250 94L246 93z"/>
<path style="fill:#646464; stroke:none;" d="M53.6667 96.3333L54.3333 96.6667L53.6667 96.3333M59 96L59 98L65 98L65 96L59 96z"/>
<path style="fill:#a2a2a2; stroke:none;" d="M248.667 99.3333L249.333 99.6667L248.667 99.3333z"/>
<path style="fill:#646464; stroke:none;" d="M248 101L248 103L250 103L250 101L248 101M48 103L48 104L54 104L48 103z"/>
<path style="fill:#a2a2a2; stroke:none;" d="M54 103L55 104L54 103M58 104L59 105L58 104M47 105L47 106L53 106L47 105M203 106L204 118L205 118L208 107L206 107L206 112L205 112L203 106M44 109L44 110L51 110L44 109z"/>
<path style="fill:#646464; stroke:none;" d="M45 109L45 110L50 110L45 109M249 110L250 111L249 110z"/>
<path style="fill:#a2a2a2; stroke:none;" d="M182 111L182 115L183 115L182 111M195 111L195 116L196 116L195 111M48.3333 112.667L48.6667 113.333L48.3333 112.667z"/>
<path style="fill:#010101; stroke:none;" d="M49 112L49 113L54 113L49 112z"/>
<path style="fill:#646464; stroke:none;" d="M54 112L52 113L52 114L54 112z"/>
<path style="fill:#a2a2a2; stroke:none;" d="M171 112L172 113L171 112M227 112L228 124L229 124L229 112L227 112z"/>
<path style="fill:#646464; stroke:none;" d="M49 113L50 114L49 113z"/>
<path style="fill:#a2a2a2; stroke:none;" d="M50.6667 113.333L51.3333 113.667L50.6667 113.333M54 113L55 114L54 113M165 113L165 118L166 118L165 113M168 113L168 118L169 118L168 113M139 114L141 124L143 124L141 114L139 114M158 114L158 120L159 120L158 114M217 114L218 115L217 114M249 114L250 115L249 114M42 115L42 116L48 116L42 115z"/>
<path style="fill:#646464; stroke:none;" d="M182 115L183 116L182 115z"/>
<path style="fill:#a2a2a2; stroke:none;" d="M134 116L134 121L135 121L134 116M182 116L183 117L182 116M225 116L225 123L226 123L225 116M236 116L237 123L238 123L238 116L236 116z"/>
<path style="fill:#646464; stroke:none;" d="M45 119L45 120L50 120L45 119z"/>
<path style="fill:#a2a2a2; stroke:none;" d="M50 119L51 120L50 119M217 119L218 120L217 119M231 119L232 120L231 119M243 119L243 127L244 127L243 119z"/>
<path style="fill:#646464; stroke:none;" d="M39 120L39 122L44 122L44 120L39 120z"/>
<path style="fill:#a2a2a2; stroke:none;" d="M44 120L44 123L37 124L37 125L49 124L50 120L44 120M138 120L138 125L139 125L138 120z"/>
<path style="fill:#646464; stroke:none;" d="M231 120L232 121L231 120z"/>
<path style="fill:#fafafa; stroke:none;" d="M45 121L46 122L45 121z"/>
<path style="fill:#a2a2a2; stroke:none;" d="M120 133L121 133L121 122L122 122L122 126L123 126L123 121C116.54 123.706 119.296 127.471 120 133M146 121L147 122L146 121M231 121L231 124L232 124L231 121z"/>
<path style="fill:#646464; stroke:none;" d="M45 122L46 123L45 122M48 122L49 123L48 122z"/>
<path style="fill:#363636; stroke:none;" d="M121 122L122 123L121 122z"/>
<path style="fill:#a2a2a2; stroke:none;" d="M246 122L247 129C243.07 132.434 245.489 137.016 250 138L248 122L246 122z"/>
<path style="fill:#646464; stroke:none;" d="M121 123L121 127L122 127L121 123z"/>
<path style="fill:#363636; stroke:none;" d="M38 124L38 125L43 125L38 124z"/>
<path style="fill:#646464; stroke:none;" d="M231 124L232 125L231 124z"/>
<path style="fill:#a2a2a2; stroke:none;" d="M231 125L232 126L231 125M41 127L41 128L47 129L47 128L41 127z"/>
<path style="fill:#363636; stroke:none;" d="M42 127L42 128L46 128L42 127z"/>
<path style="fill:#646464; stroke:none;" d="M46 127L47 128L46 127z"/>
<path style="fill:#363636; stroke:none;" d="M36 129L36 130L41 130L36 129z"/>
<path style="fill:#a2a2a2; stroke:none;" d="M116 129L116 135L117 135L116 129M40.3333 131.667L40.6667 132.333L40.3333 131.667z"/>
<path style="fill:#646464; stroke:none;" d="M41 131L41 133L45 133L45 131L41 131z"/>
<path style="fill:#a2a2a2; stroke:none;" d="M113 131L113 137L115 137L115 131L113 131M111 132L110 139L112 139L111 132M100 134L101 135L100 134z"/>
<path style="fill:#646464; stroke:none;" d="M100 135L101 136L100 135z"/>
<path style="fill:#a2a2a2; stroke:none;" d="M100 136L100 140L101 140L100 136M97 137L98 144L99 144L99 137L97 137M0 138L1 139L0 138z"/>
<path style="fill:#646464; stroke:none;" d="M100 140L100 147L101 147L100 140z"/>
<path style="fill:#a2a2a2; stroke:none;" d="M248 140L250 142L248 140z"/>
<path style="fill:#646464; stroke:none;" d="M249 140L250 141L249 140z"/>
<path style="fill:#a2a2a2; stroke:none;" d="M101 141L101 147L102 147L101 141M33 143L33 145L37 145L37 143L33 143M90 147L95 147L90 147z"/>
<path style="fill:#646464; stroke:none;" d="M95.6667 145.333L96.3333 145.667L95.6667 145.333z"/>
<path style="fill:#a2a2a2; stroke:none;" d="M249.333 145.667L249.667 146.333L249.333 145.667z"/>
<path style="fill:#010101; stroke:none;" d="M95 146L91 152L96 152L95 146z"/>
<path style="fill:#363636; stroke:none;" d="M96 146L97 147L96 146M94 147L95 148L94 147z"/>
<path style="fill:#646464; stroke:none;" d="M96 147L96 152L97 152L96 147z"/>
<path style="fill:#a2a2a2; stroke:none;" d="M100 147L101 148L100 147z"/>
<path style="fill:#363636; stroke:none;" d="M93 148L94 149L93 148z"/>
<path style="fill:#646464; stroke:none;" d="M92 149L93 150L92 149z"/>
<path style="fill:#a2a2a2; stroke:none;" d="M85 151L85 152L89 154L96 153L85 151M91 150L92 151L91 150M247 150L248 151L247 150z"/>
<path style="fill:#363636; stroke:none;" d="M248.667 150.333L249.333 150.667L248.667 150.333z"/>
<path style="fill:#646464; stroke:none;" d="M90 151L91 152L90 151M84 152L85 153L84 152z"/>
<path style="fill:#363636; stroke:none;" d="M85 152L85 153L90 153L85 152z"/>
<path style="fill:#a2a2a2; stroke:none;" d="M83 153L84 154L83 153z"/>
<path style="fill:#010101; stroke:none;" d="M84 155L89 154L84 155z"/>
<path style="fill:#a2a2a2; stroke:none;" d="M247 153L247 157L250 156L250 155L247 153z"/>
<path style="fill:#363636; stroke:none;" d="M83 154L84 155L83 154M85 154L85 155L88 155L85 154z"/>
<path style="fill:#646464; stroke:none;" d="M88 154L89 155L88 154z"/>
<path style="fill:#a2a2a2; stroke:none;" d="M92 154L93 155L92 154z"/>
<path style="fill:#646464; stroke:none;" d="M247 154L247 155L250 155L247 154z"/>
<path style="fill:#a2a2a2; stroke:none;" d="M83 155L83 156L87 156L86 159L90 159L87 157L91 158C91.6323 154.164 85.7321 155.002 83 155M32 156L32 157L35 157L32 156z"/>
<path style="fill:#646464; stroke:none;" d="M87 157L87 158L91 156L87 157z"/>
<path style="fill:#fafafa; stroke:none;" d="M248.667 156.333L249.333 156.667L248.667 156.333z"/>
<path style="fill:#646464; stroke:none;" d="M246 157L246 158L250 158L246 157z"/>
<path style="fill:#a2a2a2; stroke:none;" d="M0 158L0 159L5 159L0 158M246 158L246 159L250 159L246 158M85 159L86 160L85 159M245 160L245 162L250 162L250 160L245 160z"/>
<path style="fill:#363636; stroke:none;" d="M0 161L0 162L5 162L0 161z"/>
<path style="fill:#a2a2a2; stroke:none;" d="M5 161L6 162L5 161M84 161L84 162L88 163L84 161M150 161L150 178L151 178C152.486 172.971 153.284 165.335 150 161M175 161L175 186L176 186L175 161M0 162L0 163L5 163L0 162M79 162L80 163L79 162M82 162L83 163L82 162z"/>
<path style="fill:#646464; stroke:none;" d="M83 162L84 163L83 162z"/>
<path style="fill:#363636; stroke:none;" d="M84 162L85 163L84 162z"/>
<path style="fill:#646464; stroke:none;" d="M85.6667 162.333L86.3333 162.667L85.6667 162.333z"/>
<path style="fill:#a2a2a2; stroke:none;" d="M32 163L32 164L35 164L32 163z"/>
<path style="fill:#646464; stroke:none;" d="M78 163L78 164L82 164L78 163z"/>
<path style="fill:#363636; stroke:none;" d="M82 163L83 164L82 163z"/>
<path style="fill:#010101; stroke:none;" d="M83 163L83 164L87 164L83 163z"/>
<path style="fill:#363636; stroke:none;" d="M77 164L81 166L81 165L77 164z"/>
<path style="fill:#010101; stroke:none;" d="M78 164L78 165L82 165L78 164z"/>
<path style="fill:#a2a2a2; stroke:none;" d="M82 164L82 165L87 165L82 164M81 165L82 166L81 165M77 166L78 167L77 166M0 167L0 169L8 168L0 167M74 171L74 172L83 172L84 168L74 171M199 168L199 187L200 187L199 168z"/>
<path style="fill:#363636; stroke:none;" d="M75 169L75 170L79 170L75 169z"/>
<path style="fill:#fafafa; stroke:none;" d="M80.6667 169.333L81.3333 169.667L80.6667 169.333z"/>
<path style="fill:#a2a2a2; stroke:none;" d="M0 170L0 171L9 171L0 170M203 170L203 186L219 186L219 184L204 184L205 170L203 170z"/>
<path style="fill:#363636; stroke:none;" d="M0 171L0 172L8 172L0 171z"/>
<path style="fill:#646464; stroke:none;" d="M8 171L9 172L8 171M241 171L242 172L241 171z"/>
<path style="fill:#363636; stroke:none;" d="M242 171L242 172L250 172L242 171z"/>
<path style="fill:#a2a2a2; stroke:none;" d="M241 172L241 173L250 173L241 172M33 175L33 176L36 176L33 175M72 175L73 176L72 175z"/>
<path style="fill:#363636; stroke:none;" d="M73 175L73 176L77 176L73 175z"/>
<path style="fill:#a2a2a2; stroke:none;" d="M0 177L0 178L12 178L0 177z"/>
<path style="fill:#646464; stroke:none;" d="M76 177L77 178L76 177z"/>
<path style="fill:#363636; stroke:none;" d="M77 177L77 178L80 178L77 177z"/>
<path style="fill:#a2a2a2; stroke:none;" d="M80 177L81 178L80 177M238 177L250 179L250 178L238 177z"/>
<path style="fill:#363636; stroke:none;" d="M239 177L239 178L250 178L239 177z"/>
<path style="fill:#a2a2a2; stroke:none;" d="M33 179C35.3093 181.541 38.0635 180.545 40 178L33 179M76 178L76 179L80 179L76 178M146 178L146 192L147 192L146 178z"/>
<path style="fill:#363636; stroke:none;" d="M34.6667 179.333L35.3333 179.667L34.6667 179.333z"/>
<path style="fill:#646464; stroke:none;" d="M36 179L37 180L36 179z"/>
<path style="fill:#a2a2a2; stroke:none;" d="M209 180L209 181L217 181L209 180M72.6667 180.333L73.3333 180.667L72.6667 180.333z"/>
<path style="fill:#646464; stroke:none;" d="M75 180L76 181L75 180z"/>
<path style="fill:#363636; stroke:none;" d="M76 180L76 181L79 181L76 180z"/>
<path style="fill:#a2a2a2; stroke:none;" d="M79 180L80 181L79 180M164 180C164 186.764 161.51 198.019 168 202L166 180L164 180z"/>
<path style="fill:#010101; stroke:none;" d="M210 180L210 181L216 181L210 180z"/>
<path style="fill:#a2a2a2; stroke:none;" d="M76 181L76 182L79 182L76 181z"/>
<path style="fill:#646464; stroke:none;" d="M165 181L165 200L166 200L165 181M210 181L210 182L216 182L210 181z"/>
<path style="fill:#a2a2a2; stroke:none;" d="M236 183L236 184L250 184L236 183M0 184L0 186L15 186L15 184L0 184M35 184L36 185L35 184z"/>
<path style="fill:#363636; stroke:none;" d="M235 184L236 185L235 184z"/>
<path style="fill:#010101; stroke:none;" d="M236 184L236 185L250 185L236 184z"/>
<path style="fill:#a2a2a2; stroke:none;" d="M107 185L107 186L120 187L120 188L107 187L107 188L117 188L116 193L117 193L117 189L118 189L118 198L121 198C121 185.943 118.687 185 107 185M235 185L235 186L250 186L235 185z"/>
<path style="fill:#010101; stroke:none;" d="M107 186L107 187L119 187L107 186z"/>
<path style="fill:#646464; stroke:none;" d="M117.667 187.333L118.333 187.667L117.667 187.333z"/>
<path style="fill:#fafafa; stroke:none;" d="M119 187L120 188L119 187z"/>
<path style="fill:#a2a2a2; stroke:none;" d="M199 190L220 190L220 187L199 190M105.333 189.667L105.667 190.333L105.333 189.667z"/>
<path style="fill:#646464; stroke:none;" d="M117 189L117 193L114 192L109 201L118 201L117 189z"/>
<path style="fill:#fafafa; stroke:none;" d="M119 189L119 197L120 197L119 189z"/>
<path style="fill:#a2a2a2; stroke:none;" d="M231 190L231 191L250 192L250 191L231 190z"/>
<path style="fill:#010101; stroke:none;" d="M232 190L232 191L250 191L232 190z"/>
<path style="fill:#a2a2a2; stroke:none;" d="M0 192L0 193L19 193L0 192z"/>
<path style="fill:#646464; stroke:none;" d="M103 192L104 193L103 192z"/>
<path style="fill:#363636; stroke:none;" d="M104 192L104 193L114 193L104 192z"/>
<path style="fill:#a2a2a2; stroke:none;" d="M113 193L112 196L113 193z"/>
<path style="fill:#646464; stroke:none;" d="M41 194L42 195L41 194z"/>
<path style="fill:#363636; stroke:none;" d="M42.6667 194.333L43.3333 194.667L42.6667 194.333z"/>
<path style="fill:#a2a2a2; stroke:none;" d="M44 194L45 195L44 194M103 194L103 195L111 195L103 194M39 195L39 196L42 196L39 195M43 195L44 196L43 195M114 195L115 196L114 195M111.333 196.667L111.667 197.333L111.333 196.667M0 197L0 198L23 198L0 197M43.6667 197.333L44.3333 197.667L43.6667 197.333M76 197L79 199L79 200L76 200L76 201L80 200L79 197L76 197M102 199L109 198L102 199M110 198L111 199L110 198M112 198L112 199L117 199L112 198M227 198L227 199L250 199L227 198M0 200L0 201L25 201L0 200z"/>
<path style="fill:#646464; stroke:none;" d="M76 199L76 200L79 200L76 199z"/>
<path style="fill:#a2a2a2; stroke:none;" d="M118 199L119 200L118 199M126 199L126 201L128 201L128 199L126 199z"/>
<path style="fill:#646464; stroke:none;" d="M23 200L24 201L23 200z"/>
<path style="fill:#010101; stroke:none;" d="M110 200L110 201L117 201L110 200z"/>
<path style="fill:#363636; stroke:none;" d="M0 201L0 202L25 202L0 201z"/>
<path style="fill:#646464; stroke:none;" d="M25 201L26 202L25 201z"/>
<path style="fill:#a2a2a2; stroke:none;" d="M42 201L42 203L44 201L42 201M109 201L109 202L118 202L109 201M140 201L140 203L142 203L140 201z"/>
<path style="fill:#646464; stroke:none;" d="M141 201L142 202L141 201z"/>
<path style="fill:#010101; stroke:none;" d="M0 202L0 203L26 203L0 202z"/>
<path style="fill:#a2a2a2; stroke:none;" d="M26 202C20.0886 206.478 7.25124 204 0 204L0 209L30 209L26 206L28 203L26 202M46 202L46 204L48 204L48 202L46 202M78.6667 202.333L79.3333 202.667L78.6667 202.333M122 202L122 203L125 203L125 210L126 210L126 202L122 202z"/>
<path style="fill:#363636; stroke:none;" d="M0 203L0 204L26 204L0 203z"/>
<path style="fill:#646464; stroke:none;" d="M43 203L43 204L46 204L43 203M109 203L110 204L109 203z"/>
<path style="fill:#363636; stroke:none;" d="M110 203L110 204L116 204L110 203z"/>
<path style="fill:#a2a2a2; stroke:none;" d="M116 203L117 204L116 203z"/>
<path style="fill:#010101; stroke:none;" d="M124 203L124 208L125 208L124 203z"/>
<path style="fill:#a2a2a2; stroke:none;" d="M145 203C145.903 207.331 147.625 208.662 152 209L150 205L147 207L147 203L145 203M221 204L221 205L250 204C242.701 200.937 228.636 202.182 221 204z"/>
<path style="fill:#646464; stroke:none;" d="M26 204L26 206L28 204L26 204z"/>
<path style="fill:#363636; stroke:none;" d="M43 204L44 205L43 204z"/>
<path style="fill:#010101; stroke:none;" d="M44 204L45 205L44 204z"/>
<path style="fill:#363636; stroke:none;" d="M45 204L46 205L45 204z"/>
<path style="fill:#a2a2a2; stroke:none;" d="M75.3333 204.667L75.6667 205.333L75.3333 204.667z"/>
<path style="fill:#363636; stroke:none;" d="M76 204L76 206L78 204L76 204z"/>
<path style="fill:#646464; stroke:none;" d="M78 204L77 206L79 206L78 204z"/>
<path style="fill:#a2a2a2; stroke:none;" d="M79.6667 204.333L80.3333 204.667L79.6667 204.333M109 204L109 205L116 205L109 204z"/>
<path style="fill:#363636; stroke:none;" d="M123 204L124 205L123 204z"/>
<path style="fill:#646464; stroke:none;" d="M223 204L223 205L250 205L223 204z"/>
<path style="fill:#010101; stroke:none;" d="M78 208L82 206L78 208z"/>
<path style="fill:#a2a2a2; stroke:none;" d="M128 205L129 206L128 205z"/>
<path style="fill:#363636; stroke:none;" d="M221 205L221 250L222 250C222 237.258 225.91 216.701 221 205z"/>
<path style="fill:#010101; stroke:none;" d="M222 205L222 250L250 250L250 205L222 205z"/>
<path style="fill:#a2a2a2; stroke:none;" d="M47.3333 206.667L47.6667 207.333L47.3333 206.667z"/>
<path style="fill:#646464; stroke:none;" d="M48.6667 206.333L49.3333 206.667L48.6667 206.333z"/>
<path style="fill:#a2a2a2; stroke:none;" d="M50 206L51 207L50 206M77.6667 206.333L78.3333 206.667L77.6667 206.333z"/>
<path style="fill:#363636; stroke:none;" d="M80.6667 206.333L81.3333 206.667L80.6667 206.333z"/>
<path style="fill:#646464; stroke:none;" d="M103 206L103 207L109 207L103 206z"/>
<path style="fill:#a2a2a2; stroke:none;" d="M109 206L110 207L109 206z"/>
<path style="fill:#363636; stroke:none;" d="M123 206L124 207L123 206z"/>
<path style="fill:#a2a2a2; stroke:none;" d="M132.667 206.333L133.333 206.667L132.667 206.333z"/>
<path style="fill:#010101; stroke:none;" d="M48 207L48 208L51 208L48 207z"/>
<path style="fill:#363636; stroke:none;" d="M77 207L78 208L77 207z"/>
<path style="fill:#a2a2a2; stroke:none;" d="M80 207L81 208L80 207M103 207L103 208L109 208L103 207M173 207L174 208L173 207z"/>
<path style="fill:#363636; stroke:none;" d="M174 207L174 208L199 209C193.244 204.639 181.051 207 174 207z"/>
<path style="fill:#a2a2a2; stroke:none;" d="M198 207L199 208L198 207M78 208L78 209L82 210L82 209L78 208z"/>
<path style="fill:#363636; stroke:none;" d="M79 208L80 209L79 208z"/>
<path style="fill:#646464; stroke:none;" d="M80 208L81 209L80 208z"/>
<path style="fill:#363636; stroke:none;" d="M124 208L125 209L124 208z"/>
<path style="fill:#a2a2a2; stroke:none;" d="M136 208L136 210L138 210L136 208z"/>
<path style="fill:#646464; stroke:none;" d="M173 208L174 209L173 208z"/>
<path style="fill:#010101; stroke:none;" d="M174 208L174 209L198 209L174 208z"/>
<path style="fill:#363636; stroke:none;" d="M0 209L0 210L30 210L0 209z"/>
<path style="fill:#646464; stroke:none;" d="M30 209L30 210L33 210L30 209z"/>
<path style="fill:#a2a2a2; stroke:none;" d="M105 209L105 210L108 210L105 209z"/>
<path style="fill:#010101; stroke:none;" d="M0 210L0 250L33 250L33 210L0 210z"/>
<path style="fill:#a2a2a2; stroke:none;" d="M33 210L33 250L34 250C34 238.566 37.411 220.512 33 210M50 210L50 211L53 211L50 210z"/>
<path style="fill:#646464; stroke:none;" d="M82 210L83 211L82 210z"/>
<path style="fill:#363636; stroke:none;" d="M83.6667 210.333L84.3333 210.667L83.6667 210.333M51 211L52 212L51 211z"/>
<path style="fill:#010101; stroke:none;" d="M52 211L54 214L52 211z"/>
<path style="fill:#363636; stroke:none;" d="M53 211L54 212L53 211z"/>
<path style="fill:#a2a2a2; stroke:none;" d="M82 211L83 212L82 211z"/>
<path style="fill:#010101; stroke:none;" d="M83.6667 211.333L84.3333 211.667L83.6667 211.333z"/>
<path style="fill:#a2a2a2; stroke:none;" d="M148.667 211.333L149.333 211.667L148.667 211.333M51 212L52 213L51 212M54 212L54 215L55 215L54 212z"/>
<path style="fill:#363636; stroke:none;" d="M84 212L85 213L84 212z"/>
<path style="fill:#a2a2a2; stroke:none;" d="M85.3333 212.667L85.6667 213.333L85.3333 212.667M52 213L52 217L53 217L52 213M82 213L83 214L82 213z"/>
<path style="fill:#646464; stroke:none;" d="M86.3333 213.667L86.6667 214.333L86.3333 213.667z"/>
<path style="fill:#a2a2a2; stroke:none;" d="M151 213L151 214L154 214L151 213z"/>
<path style="fill:#646464; stroke:none;" d="M53 214L55 219L56 219L56 214L53 214z"/>
<path style="fill:#a2a2a2; stroke:none;" d="M56 214L56 217L57 217L56 214M87 214L86 218L87 218L87 214M119 214L120 215L119 214M127 214L127 218L128 218L130 215L127 214M176 215L176 217L204 217L204 215L176 215M89 216L89 218L91 216L89 216z"/>
<path style="fill:#646464; stroke:none;" d="M136 216L137 217L136 216z"/>
<path style="fill:#a2a2a2; stroke:none;" d="M40 217L40 250L41 250L40 217M54 217L55 218L54 217z"/>
<path style="fill:#646464; stroke:none;" d="M90 217L91 218L90 217z"/>
<path style="fill:#a2a2a2; stroke:none;" d="M135 217L135 220L137 219L137 218L135 217z"/>
<path style="fill:#363636; stroke:none;" d="M136 217L137 218L136 217z"/>
<path style="fill:#646464; stroke:none;" d="M151 217L152 218L151 217z"/>
<path style="fill:#363636; stroke:none;" d="M152 217L153 218L152 217z"/>
<path style="fill:#646464; stroke:none;" d="M153 217L154 218L153 217z"/>
<path style="fill:#a2a2a2; stroke:none;" d="M92 218L94 222L92 218M55 219L56 220L55 219M59 219L58 223L62 225L62 221L61 221L61 223L60 223L59 219z"/>
<path style="fill:#646464; stroke:none;" d="M92 219L93 220L92 219M151 219L152 220L151 219z"/>
<path style="fill:#363636; stroke:none;" d="M152 219L153 220L152 219z"/>
<path style="fill:#a2a2a2; stroke:none;" d="M153 219L154 220L153 219M43 220L43 250L45 250L45 220L43 220M63 221L63 224L64 224L63 221M131 221L132 222L131 221M175 221L175 222C183.549 224.527 198.451 224.527 207 222L207 221C197.59 223.24 184.41 223.24 175 221z"/>
<path style="fill:#363636; stroke:none;" d="M176 221L176 222L206 222L176 221z"/>
<path style="fill:#a2a2a2; stroke:none;" d="M149 223L149 224L152 225L152 222L149 223M67 224L66 228L67 228L67 224M124.333 224.667L124.667 225.333L124.333 224.667M129 224L130 225L129 224z"/>
<path style="fill:#010101; stroke:none;" d="M149.667 224.333L150.333 224.667L149.667 224.333z"/>
<path style="fill:#a2a2a2; stroke:none;" d="M104 226L104 227L108 227L104 226M126.333 225.667L126.667 226.333L126.333 225.667M149 225L150 226L149 225M69 226L70 227L69 226M145 226L144 230L147 231L147 226L145 226M119 227L120 228L119 227z"/>
<path style="fill:#010101; stroke:none;" d="M145 227L145 229L147 227L145 227z"/>
<path style="fill:#a2a2a2; stroke:none;" d="M171 250L208 250L208 227L182 227L172.318 229.318L171 250z"/>
<path style="fill:#646464; stroke:none;" d="M119 228L120 229L119 228z"/>
<path style="fill:#a2a2a2; stroke:none;" d="M142 229L142 232L143 232L142 229M57 231L58 232L57 231M77 232L78 233L77 232M60 233L60 250L61 250L60 233M79 233L80 234L79 233M130 234L130 236L132 236L132 234L130 234M165 235L165 250L167 250L167 235L165 235M67 236L67 250L68 250L67 236M92 236L93 237L92 236M100 236L100 240L101 240L100 236z"/>
<path style="fill:#646464; stroke:none;" d="M92 237L93 238L92 237z"/>
<path style="fill:#a2a2a2; stroke:none;" d="M127.333 237.667L127.667 238.333L127.333 237.667M69 238L70 250L71 250L69 238M92 238L93 239L92 238M97 247L97 250L98 250L97 247M144 247L145 248L144 247M103 248L103 250L105 250L103 248M118 249L119 250L118 249z"/>
</svg>
